# xmcd
#
# Track frame offsets:
#	150
#	17632
#	33541
#	51427
#	66321
#	85769
#	104372
#	123591
#	138272
#	154558
#	167858
#	185825
#	201860
#	220333
#	243550
#	260908
#	280895
#	296452
#	313988
#	328701
#
# Disc length: 4663 seconds
#
# Revision: 1
# Processed by: cddbd v1.5.1PL0 Copyright (c) Steve Scherf et al.
# Submitted via: EasyCDDAExtractor 7.0.5.4
#
DISCID=3e123514
DTITLE=R. Kelly - Gotham City Clubbin
DYEAR=2004
DGENRE=R&B
TTITLE0=So sexy feat. Twista
TTITLE1=I love you feat. J Lo
TTITLE2=Ignition feat. Twista (remix)
TTITLE3=Bump that feat. B2K
TTITLE4=Snake feat. Crucial Conflict
TTITLE5=Clubbin feat. Marques Houston (remix pt 2)
TTITLE6=Toot toot beep beep feat. Static
TTITLE7=Gigolo (remix)
TTITLE8=Hotel feat. Cassidy
TTITLE9=Thoia Thong
TTITLE10=Fiesta feat. Jay Z and Boo and Gotti
TTITLE11=Gangsta girl feat. Baby
TTITLE12=Hell yeah feat. Ginuwine and Baby (remix)
TTITLE13=Hotel feat. Cassidy and Trina (remix)
TTITLE14=Thoia thong feat. Baby and Busta Rhymes (remix)
TTITLE15=Pick up the phone
TTITLE16=Gigolo feat. Nick Cannon
TTITLE17=Thoia thong feat. harlem globtrotters (remix 3)
TTITLE18=Utitled feat. bump that (remix)
TTITLE19=Happy people
EXTD=
EXTT0=
EXTT1=
EXTT2=
EXTT3=
EXTT4=
EXTT5=
EXTT6=
EXTT7=
EXTT8=
EXTT9=
EXTT10=
EXTT11=
EXTT12=
EXTT13=
EXTT14=
EXTT15=
EXTT16=
EXTT17=
EXTT18=
EXTT19=
PLAYORDER=
